<svg xmlns="http://www.w3.org/2000/svg" version="1.1" xmlns:xlink="http://www.w3.org/1999/xlink" xmlns:svgjs="http://svgjs.dev/svgjs" width="320" height="360" viewBox="0 0 320 360"><g transform="matrix(1,0,0,1,0,0)"><svg viewBox="0 0 320 360" data-background-color="#1ebbd7" preserveAspectRatio="xMidYMid meet" height="360" width="320" xmlns="http://www.w3.org/2000/svg" xmlns:xlink="http://www.w3.org/1999/xlink"><g id="tight-bounds" transform="matrix(1,0,0,1,0,0)"><svg viewBox="0 0 320 360" height="360" width="320"><g><svg></svg></g><g><svg viewBox="0 0 320 360" height="360" width="320"><g><path xmlns="http://www.w3.org/2000/svg" d="M219.58 41.008c0.707 0 6.365 2.829 9.547 3.89-1.061 0.354-3.536-0.707-6.365-1.768 0.707 0 2.122 0.354 3.536 1.06-0.707-0.707-6.011-2.475-6.718-3.182M166.895 30.047c1.061-0.354 13.436 1.414 19.094 1.768 0.354-0.354-0.707-0.354-2.122-0.707 1.768-0.354 5.304 0.707 7.779 1.06-7.425 0.354-15.558-1.768-22.629-1.06-2.475 0-0.707-0.707-2.122-1.061M156.641 30.047c6.365 0 11.315 0 2.121 0.707-1.061-0.354-2.475-0.354-2.121-0.707M256.707 59.395c0.707 0 3.536 3.182 4.95 4.243-0.354 0.354-3.182-2.475-4.596-3.536 0.354 0.354 0 0-0.354-0.707M249.635 54.798c-2.829-2.475-3.889-2.475-4.243-3.889 2.475 1.414 4.243 2.829 4.243 3.889M204.022 32.522c0.354-0.354 1.061 0.354 2.829 0.707-2.122-0.354-1.768 0-1.061 0.707-2.475-0.354-3.182-0.707-2.475-1.414 1.414 0.707 1.768 0.354 0.707 0M103.602 36.765c0-0.354 1.414-1.061 2.475-1.414-1.061 0.707-0.707 1.061 1.061 0.353 0 0.354-2.122 1.061-3.536 1.768 0.707-0.354 1.414-1.414 0-0.707M211.094 28.986c-1.061 0.354-4.95-1.768-8.84-2.475-2.122-0.707 8.486 1.768 8.84 2.475M2.475 203.66c2.122 8.84 0.707 8.486 0 0M2.829 150.621c0.354-1.414 0.707-5.304 1.06-4.95-1.061 8.486-2.829 12.376-3.182 18.74 1.061-5.657-0.354 3.182-0.707 5.304 0.354 2.829 0.354-1.768 1.061-1.06 0.707 1.061-1.414 15.912-0.707 7.779-0.707 7.425 0 15.558 1.414 17.679-1.768 11.315 7.072 36.773 8.84 42.077 0.354 0.354 0-1.768 0.707-0.353 0.707 4.597 3.889 7.779 4.95 12.729 1.061 1.414 5.304 9.193 6.011 10.962 1.414 2.829 2.122 2.475 3.536 5.303 4.243 8.133 10.961 15.912 17.326 23.337 20.508 24.044 51.978 43.845 86.984 50.918 35.006 7.425 71.779 2.122 100.419-11.669 1.768-1.061 1.414-1.414 3.536-2.122 9.901-3.182 21.923-13.436 28.641-17.326 3.182-3.536 11.669-9.547 12.73-13.082 6.011-4.95 12.022-13.083 15.204-18.387 1.768-2.829 3.182-2.829 3.889-4.597-0.354 0 5.657-7.425 7.426-11.668-0.707 0-1.768 2.122-1.768 0 12.729-24.398 19.801-57.282 15.911-79.912 0.707 27.934-6.365 59.05-19.801 78.851-6.011 12.729-18.387 26.519-29.701 36.42-1.768 1.768-3.536 3.889-5.658 5.304-6.718 5.657-14.144 10.254-21.922 14.497-18.387 10.254-38.895 19.094-62.94 19.447 41.37-3.536 78.497-24.398 99.006-49.856-15.558 15.204-22.276 21.215-39.602 30.055-1.414 2.475-13.083 7.425-20.862 9.547 4.597-2.122 14.144-5.657 17.326-8.486-25.812 12.376-54.453 19.448-81.326 15.558 10.254 0 24.751 0.354 38.541-2.121 2.122-0.707 3.182-1.414 5.658-1.768 26.873-6.011 52.685-19.094 71.072-37.481-10.608 9.547-26.519 20.862-36.774 24.398 9.547-5.304 26.873-15.558 32.53-23.337-11.315 11.315-32.53 22.63-45.966 27.58-2.122 0.354 1.414-1.414-2.122 0-4.243 1.061-2.475 1.061-3.536 1.768-16.265 4.597-35.006 8.486-50.563 7.072-2.829-0.354-3.889-1.061-6.365-1.061-2.829-0.354-5.304-0.354-8.486-0.354-12.376-1.414-25.812-6.365-35.713-10.607-5.304-2.475-10.608-4.243-15.912-7.426-4.243-2.475-7.779-5.304-11.314-8.132-13.436-9.901-24.751-19.801-35.36-33.945-19.094-26.519-28.994-59.757-27.58-92.641 1.414-32.884 14.497-65.061 35.359-88.752-1.061 1.061 1.414-2.475 3.536-4.596 0 0.707-0.354 1.768 2.122-0.707 2.122-2.475-0.707-0.707 0.353-2.122 21.923-24.044 60.111-43.492 99.36-44.199 1.414-1.061 3.889-2.475 6.718-1.768 0 0.354-1.768 0.354-1.768 0.354 3.889-0.354 7.425-0.354 9.193 0.353 0.354-0.354-1.414-0.707 0-0.707 2.475 0.707 3.182 0 4.597 0.707-1.061 0-2.122 0-2.829 0.354 8.84 0 14.497 2.122 23.337 2.829-4.597-1.061-5.657-1.061-9.193-2.122 3.889 0.707 5.657 1.414 7.425 1.061-0.707 0-0.354-1.061 0.354-0.707 7.072 1.768 7.779 2.475 15.204 4.95 0.707-0.707-3.182-1.061-4.243-2.122 7.072 2.475 13.436 4.243 17.68 7.072-1.414-1.061-5.657-2.475-8.84-3.889-0.354 0.354 1.061 0.707 1.414 1.414-3.536-1.768-8.486-3.536-13.436-4.243 4.243 1.061 7.072 2.475 8.84 3.182-3.889-0.707-8.84-3.182-14.498-4.243 9.193 2.829 26.519 9.193 37.127 14.851-3.889-2.475-8.486-4.243-10.961-5.657 2.122 0.354 4.597 1.768 4.597 1.06 2.475 1.061 5.657 3.536 7.425 3.89-3.182-2.122-9.547-5.304-11.668-6.365 26.519 12.022 50.21 32.177 65.414 57.989 1.414 2.475 3.536 8.133 5.304 8.84-0.354-1.768-1.768-2.829-3.182-5.657 0.707 0 0.707-1.061 0-2.122-1.414-1.768 0 1.414-1.415-0.354-6.365-11.669-14.144-21.923-26.165-33.237 6.718 6.365 1.768 1.768 0.353-0.354 9.193 8.133 19.801 21.923 24.398 28.995-0.707-1.061-1.061-1.768-0.707-1.768 8.486 14.497 13.79 27.58 19.094 46.32 0.354 0.354 0-1.414 0.707-0.353 3.536 14.851 4.597 27.227 4.243 38.541 2.829-19.094-3.536-48.796-14.851-72.133-1.414-2.829-1.414-0.707-2.829-3.889 0-1.061-1.061-3.182-1.768-4.597-14.144-23.337-31.47-39.956-51.978-53.038 1.414 0.707 4.243 2.829 4.244 2.475-38.188-25.105-82.387-28.641-118.807-20.862-2.475 1.061-3.536 2.122-6.365 3.536 5.304-1.768 8.486-2.122 13.437-3.183 1.061-1.061-4.597 0.354-2.122-0.707 0.354 0.354 4.95-0.707 6.011-0.353 0 0.354-1.414 0.707-1.768 1.06 11.669-2.475 23.691-2.829 33.945-2.121-6.011 0.354-16.972-0.707-20.508 1.061 3.536-0.354 8.486-0.707 11.668-0.354-4.243 0-12.022 0.354-15.558 0.707-0.354-0.354 5.657-1.061 1.768-1.06-1.768 0.354-4.597 0.354-5.657 1.414-30.409 2.829-60.111 18.74-80.973 37.481-4.243 3.536-9.193 7.425-12.375 11.314-7.779 8.84-12.729 17.68-18.387 25.459 3.536-7.425 11.315-18.74 20.508-28.287 9.193-9.547 19.094-17.68 24.398-21.923 0 1.414 8.486-5.304 11.669-7.425-2.122 1.768 1.414-0.707 2.121-0.354 11.315-6.718 20.508-9.193 30.763-13.083-2.475 0.707-4.597 1.414-4.951 1.061 2.475-0.707 3.889-1.414 3.536-1.768-9.901 2.829-25.459 9.547-37.834 16.972 22.276-15.204 50.564-24.398 78.497-24.751 27.934-0.707 55.16 6.365 76.729 17.68 14.497 6.365 28.287 18.033 39.249 29.348 3.182 2.829 0.707-0.707 5.304 4.243-1.414-0.707-2.475-1.414-0.707 0.707 2.829 3.182-0.707-2.475 3.889 3.182-0.354 0-1.768-1.768-1.768-1.061 12.376 10.961 21.923 30.762 27.58 43.846-1.414-5.304-4.95-12.729-7.779-18.033 8.486 15.558 11.315 24.751 14.851 38.541 1.414 1.061-0.707-4.95 0.707-2.121 0.354 2.122 0.707 8.84 2.122 9.9-1.061-6.718-2.829-14.851-4.243-16.265 1.061 0.707-1.768-8.133-3.536-10.254-0.707-5.657-5.657-15.558-9.901-22.984-15.204-29.702-42.431-54.099-72.839-67.536 0-0.707-1.768-1.414-2.476-2.121-30.055-12.729-66.122-16.265-100.773-8.133-35.006 8.486-67.889 28.641-91.227 57.636 1.061-3.536 9.901-10.254 10.255-13.083-10.254 10.961-21.215 25.459-28.641 41.016-7.779 15.558-12.022 31.47-13.79 43.138" fill="#ffffff" fill-rule="nonzero" stroke="none" stroke-width="1" stroke-linecap="butt" stroke-linejoin="miter" stroke-miterlimit="10" stroke-dasharray="" stroke-dashoffset="0" font-family="none" font-weight="none" font-size="none" text-anchor="none" style="mix-blend-mode: normal" data-fill-palette-color="tertiary"></path></g><g transform="matrix(1,0,0,1,70,90)"><svg viewBox="0 0 180 180" height="180" width="180"><g><svg viewBox="0 0 180 180" height="180" width="180"><g><svg viewBox="0 0 180 180" height="180" width="180"><g id="textblocktransform"><svg viewBox="0 0 180 180" height="180" width="180" id="textblock"><g><svg viewBox="0 0 180 180" height="180" width="180"><g transform="matrix(1,0,0,1,36.966991411008934,36.966991411008934)"><svg viewBox="0 0 106.06601717798213 106.06601717798213" height="106.06601717798213" width="106.06601717798213"><g><circle r="53" cx="53.033008588991066" cy="53.033008588991066" fill="#ffffff" data-fill-palette-color="accent"></circle><svg xmlns="http://www.w3.org/2000/svg" xmlns:xlink="http://www.w3.org/1999/xlink" version="1.1" x="15.90990257669732" y="15.90990257669732" viewBox="9.298999786376953 10.128997802734375 493.2239685058594 493.2250061035156" enable-background="new 0 0 512 512" xml:space="preserve" height="74.24621202458749" width="74.24621202458749" class="icon-o-0" data-fill-palette-color="quaternary" id="o-0"><path d="M255.912 503.354c-65.873 0-127.802-25.651-174.381-72.231C34.951 384.543 9.299 322.613 9.299 256.741S34.951 128.939 81.531 82.36c46.579-46.579 108.508-72.231 174.381-72.231 65.872 0 127.801 25.652 174.379 72.231 46.58 46.579 72.232 108.509 72.232 174.381s-25.652 127.802-72.232 174.381C383.713 477.702 321.783 503.354 255.912 503.354zM255.912 39.94c-119.545 0-216.802 97.256-216.802 216.801 0 119.546 97.257 216.803 216.802 216.803 119.545 0 216.801-97.257 216.801-216.803C472.713 137.196 375.457 39.94 255.912 39.94z" fill="#000000" data-fill-palette-color="quaternary"></path><circle cx="100.54" cy="147.305" r="19" fill="#000000" data-fill-palette-color="quaternary"></circle><circle cx="339.679" cy="101.369" r="19" fill="#000000" data-fill-palette-color="quaternary"></circle><path d="M362.41 162.806c-8.568-51.903-263.58-8.181-254.608 42.03 8.973 50.211 72.51 84.567 142.817 72.961C320.926 266.191 370.977 214.709 362.41 162.806zM207.455 268.227c-2.278-12.259 13.5-25.473 35.243-29.514 21.74-4.041 41.214 2.621 43.492 14.879C288.469 265.852 209.734 280.486 207.455 268.227zM348.539 168.42c-1.002 7.223-4.676 12.683-8.213 12.193l-6.395-0.885 2.023 0.414c1.947 0.397 2.674 4.895 1.621 10.042-1.053 5.148-3.488 8.998-5.436 8.6l-3.65-0.747c0.736 1.323 0.889 4.01 0.281 6.976-0.818 4.01-2.715 7.006-4.234 6.696l-13.064-2.675c-1.518-0.311-2.084-3.812-1.262-7.82 0.785-3.848 2.561-6.752 4.045-6.709-1.072-1.595-1.334-5.194-0.514-9.197 0.734-3.598 2.145-6.554 3.594-7.876l-7.445-1.031c-1.535-0.212-2.791-1.512-3.639-3.503-1.09 2.212-2.576 3.59-4.244 3.622l-30.143 0.576c-1.49 0.028-2.879-1.024-3.996-2.796-0.787 2.794-2.209 4.686-4.049 4.936l-29.758 4.041c-1.625 0.22-3.279-0.885-4.681-2.856-0.573 2.473-1.691 4.154-3.232 4.46l-27.042 5.378c-1.64 0.326-3.429-0.969-4.969-3.287-0.225 2.363-1.053 4.075-2.473 4.606l-26.037 9.754c-1.245 0.467-2.746-0.054-4.258-1.289 0.139 2.794-0.564 4.944-2.146 5.734l-2.121 1.058c1.649 1.068 3.561 3.446 5.048 6.503 1.572 3.229 2.261 6.368 1.97 8.311l1.622-0.789c1.391-0.678 3.975 1.755 5.765 5.434 1.792 3.68 2.113 7.212 0.722 7.891l-11.992 5.836c-1.393 0.678-3.975-1.753-5.766-5.434-1.146-2.353-1.688-4.642-1.566-6.166l-5.226 2.543c-1.788 0.871-5.104-2.253-7.403-6.978-1.43-2.934-2.128-5.794-2.025-7.75l-5.188 2.587c-3.041 1.517-8.143-2.544-11.396-9.07-3.255-6.526-3.428-13.046-0.389-14.561l26.163-13.047c1.731-0.864 4.136 0.09 6.485 2.275-0.4-3.979 0.436-7.066 2.437-7.816l26.038-9.753c2.274-0.852 5.397 1.546 7.894 5.69 0.089-4.432 1.432-7.737 3.659-8.181l27.043-5.378c1.75-0.348 3.673 1.144 5.279 3.767 0.736-3.181 2.242-5.369 4.232-5.639l29.762-4.04c2.033-0.276 4.111 1.518 5.682 4.507 1.008-4.061 3.027-6.835 5.408-6.881l30.141-0.575c2.262-0.043 4.289 2.388 5.482 6.072 1.648-3.856 4.117-6.281 6.523-5.949l30.436 4.214C347.48 154.944 349.537 161.196 348.539 168.42z" fill="#000000" data-fill-palette-color="quaternary"></path></svg></g></svg></g><g><path d="M84.634 179.918c-0.571-0.009-0.981-0.025-1.229-0.049v0l-0.937-0.014-0.907-0.014-1.098-0.016c-0.141-0.002-0.282-0.031-0.422-0.087v0c-0.181-0.056-0.341-0.086-0.482-0.088v0l-0.243 0.026c-0.174-0.056-0.26-0.155-0.257-0.296v0l-1.745-8.502c-0.447-2.412-0.84-4.618-1.18-6.619v0c-0.093-0.069-0.17-0.298-0.231-0.689v0c-0.017-0.215-0.022-0.548-0.015-0.998v0c0.003-0.228 0.047-0.419 0.129-0.572 0.083-0.147 0.205-0.219 0.367-0.216v0l0.372 0.006 0.615 0.009c0.127 0.036 0.349 0.056 0.664 0.06v0l1.209 0.049 0.211 0.003 1.149 0.018 0.161 0.032c0.013 0.014 0.03 0.021 0.05 0.021 0.02 0 0.03 0 0.03 0.001v0l0.019 0.06c0.02 0 0.044-0.009 0.071-0.029 0.027-0.02 0.058-0.029 0.091-0.029v0c0.108-0.032 0.179-0.048 0.213-0.047v0l0.08 0.002 0.242 0.033c0.195 0.016 0.577 0.029 1.148 0.038v0c0.181 0.043 0.385 0.066 0.614 0.07v0c0.085 0.156 0.175 0.433 0.269 0.83 0.095 0.391 0.192 0.829 0.293 1.315v0c0.03 0.262 0.108 0.825 0.236 1.686v0c0.05 0.263 0.108 0.6 0.176 1.011v0l0.138 0.859c0 0.02 0.009 0.051 0.029 0.091 0.019 0.047 0.029 0.108 0.028 0.182v0l0.072 0.535c0.031 0.142 0.062 0.364 0.091 0.666v0c0.039 0.088 0.064 0.199 0.075 0.334 0.018 0.135 0.037 0.246 0.056 0.333v0c0.012 0.088 0.028 0.172 0.046 0.253 0.019 0.081 0.028 0.168 0.026 0.262v0l0.047 0.233 0.019 0.111c-0.001 0.054 0.019 0.098 0.058 0.132v0l-0.002 0.161 0.053-0.16 0.002-0.131 0.031-0.111c0.001-0.054 0.019-0.131 0.054-0.231v0c0.002-0.128 0.031-0.298 0.089-0.512v0c0.035-0.107 0.064-0.217 0.085-0.331 0.022-0.114 0.04-0.224 0.056-0.332v0l0.121-0.663c0.035-0.107 0.064-0.214 0.085-0.322 0.015-0.107 0.023-0.178 0.024-0.211v0l0.034-0.272c0.558-2.679 0.95-4.383 1.176-5.111v0c0.015-0.107 0.047-0.208 0.096-0.301 0.049-0.1 0.127-0.176 0.235-0.228v0c0.014-0.033 0.071-0.059 0.172-0.078 0.094-0.012 0.168-0.028 0.223-0.047v0c0.377-0.048 0.646-0.071 0.807-0.069v0l0.453 0.007 0.776 0.012 0.937 0.044c0.154 0.016 0.339 0.025 0.554 0.029v0l0.08 0.001c0.02-0.013 0.034-0.026 0.041-0.039 0.014-0.007 0.02-0.01 0.02-0.01v0c0.067 0.001 0.111 0.018 0.131 0.052v0c0.034 0.001 0.054 0.008 0.06 0.021 0.013 0.007 0.02 0.01 0.02 0.011v0c0.315 0.025 0.688 0.041 1.118 0.047v0c0.181 0.016 0.369 0.026 0.564 0.029v0c0.161 0.002 0.248 0.024 0.261 0.064v0c0.02 0 0.047-0.009 0.081-0.029 0.041-0.02 0.078-0.029 0.111-0.029v0c0.034-0.033 0.122-0.049 0.263-0.046v0l0.161 0.003 0.322 0.004c0.282 0.004 0.449 0.044 0.502 0.119v0c0.14 0.533 0.247 1.2 0.323 2v0l0.071 0.596c0.126 1.016 0.264 1.872 0.415 2.566v0l0.045 0.323c0.048 0.377 0.071 0.609 0.07 0.697v0c0.017 0.175 0.057 0.461 0.118 0.858v0c0.034 0.41 0.077 0.697 0.128 0.859v0c-0.003 0.195 0.01 0.417 0.041 0.665v0c0.019 0.088 0.035 0.155 0.047 0.203 0.02 0.041 0.029 0.071 0.029 0.091v0c-0.001 0.087 0.008 0.168 0.026 0.242v0l0.018 0.161c0.042-0.093 0.069-0.147 0.083-0.16v0l0.004-0.241 0.034-0.292 0.111-0.663 0.154-0.855c0.017-0.235 0.065-0.52 0.144-0.854v0l0.091-0.694c0.021-0.087 0.036-0.157 0.044-0.211 0.008-0.054 0.011-0.091 0.012-0.111v0c0.115-0.495 0.191-0.867 0.228-1.115v0l0.12-0.562c0.269-1.313 0.487-2.216 0.656-2.712v0c0.058-0.301 0.149-0.549 0.273-0.741v0c0.107 0.002 0.225-0.007 0.353-0.025 0.121-0.018 0.246-0.026 0.373-0.025v0c0.141 0.002 0.303-0.012 0.485-0.043v0l0.05 0.001c0.054 0.001 0.08 0.018 0.08 0.052v0c0 0 0 0.01-0.001 0.03 0 0.02 0.01 0.03 0.03 0.031v0c0.067 0.001 0.121-0.008 0.162-0.028 0.034-0.02 0.061-0.029 0.081-0.029v0l0.021-0.05 1.441 0.022 0.191 0.003c0.195 0.003 0.363-0.005 0.504-0.023v0l0.675 0.01c0.336 0.005 0.564-0.008 0.686-0.04v0l0.615 0.01 0.403 0.006c0.141 0.002 0.251 0.084 0.329 0.247 0.078 0.162 0.116 0.348 0.112 0.556v0c-0.091 0.234-0.177 0.565-0.257 0.994v0c-0.016 0.195-0.027 0.423-0.03 0.684v0c-0.633 2.752-1.268 5.211-1.906 7.379v0l-1.981 7.639c-0.162 0.031-0.253 0.08-0.274 0.147v0l-0.002 0.141-0.262-0.035c-0.148-0.002-0.255 0.006-0.323 0.026v0l-0.322 0.015-1.34-0.02c-0.692-0.011-1.206-0.025-1.542-0.044v0l-1.521-0.023-1.31-0.02-0.776-0.012c-0.181-0.023-0.429-0.037-0.745-0.041v0l-0.272 0.026c-0.174-0.056-0.26-0.155-0.258-0.296v0l-1.659-8.844-1.897 8.79c-0.092 0.281-0.379 0.417-0.863 0.41v0l-1.25-0.019c-0.235 0.017-0.645 0.02-1.229 0.011z" fill="#ffffff" data-fill-palette-color="primary"></path><path d="M6.309 91.203c0-1.143 0.926-2.069 2.069-2.069 1.143 0 2.069 0.926 2.069 2.069 0 1.143-0.926 2.069-2.069 2.07-1.143 0-2.069-0.926-2.069-2.07z" fill="#ffffff" data-fill-palette-color="primary"></path><path d="M169.553 91.203c0-1.143 0.926-2.069 2.069-2.069 1.143 0 2.069 0.926 2.069 2.069 0 1.143-0.926 2.069-2.069 2.07-1.143 0-2.069-0.926-2.069-2.07z" fill="#ffffff" data-fill-palette-color="primary"></path></g></svg></g></svg></g></svg></g></svg></g></svg></g></svg></g><defs></defs></svg><rect width="320" height="360" fill="none" stroke="none" visibility="hidden"></rect></g></svg></g></svg>